<svg xmlns="http://www.w3.org/2000/svg" viewBox="0 0 1024 1024" width="1024" height="1024">
  <defs>
    <linearGradient id="bg" x1="0%" y1="0%" x2="100%" y2="100%">
      <stop offset="0%" stop-color="#f2f6fb"/>
      <stop offset="100%" stop-color="#d8e6f7"/>
    </linearGradient>
    <linearGradient id="jar" x1="50%" y1="0%" x2="50%" y2="100%">
      <stop offset="0%" stop-color="#8ec3f4"/>
      <stop offset="55%" stop-color="#5e9fe8"/>
      <stop offset="100%" stop-color="#3d84d9"/>
    </linearGradient>
    <linearGradient id="lid" x1="50%" y1="0%" x2="50%" y2="100%">
      <stop offset="0%" stop-color="#4a4844"/>
      <stop offset="100%" stop-color="#2c2a27"/>
    </linearGradient>
  </defs>
  <rect width="1024" height="1024" rx="220" fill="url(#bg)"/>
  <ellipse cx="512" cy="856" rx="200" ry="32" fill="#1a1a18" opacity="0.07"/>
  <path
    fill="url(#jar)"
    d="M352 420c0-36 32-44 44-44h232c40 0 44 20 44 44v300c0 96-120 132-180 132s-180-36-180-132z"
  />
  <path fill="#ffffff" opacity="0.18" d="M384 500h256v12c0 0-56 24-128 24s-128-24-128-24z"/>
  <ellipse cx="392" cy="592" rx="36" ry="168" fill="#fff" opacity="0.22" transform="rotate(-10 392 592)"/>
  <rect x="288" y="288" width="448" height="120" rx="40" fill="url(#lid)"/>
  <rect x="316" y="312" width="392" height="44" rx="18" fill="#ffffff" opacity="0.1"/>
</svg>
