<svg xmlns="http://www.w3.org/2000/svg" viewBox="0 0 32 32" role="img" aria-label="mikujar">
  <defs>
    <linearGradient id="b" x1="0%" y1="0%" x2="100%" y2="100%">
      <stop offset="0%" stop-color="#f2f6fb"/>
      <stop offset="100%" stop-color="#d8e6f7"/>
    </linearGradient>
    <linearGradient id="j" x1="50%" y1="0%" x2="50%" y2="100%">
      <stop offset="0%" stop-color="#8ec3f4"/>
      <stop offset="100%" stop-color="#3d84d9"/>
    </linearGradient>
    <linearGradient id="l" x1="50%" y1="0%" x2="50%" y2="100%">
      <stop offset="0%" stop-color="#4a4844"/>
      <stop offset="100%" stop-color="#2c2a27"/>
    </linearGradient>
  </defs>
  <rect width="32" height="32" rx="7" fill="url(#b)"/>
  <path fill="url(#j)" d="M11 13.1c0-1.1 1-1.35 1.4-1.35h7.2c1.25 0 1.4.6 1.4 1.35v9.4c0 3-3.75 4.1-5.65 4.1s-5.65-1.1-5.65-4.1z"/>
  <path fill="#fff" opacity="0.18" d="M11.75 15.6h8.5v.35s-1.75.75-4.25.75-4.25-.75-4.25-.75z"/>
  <ellipse cx="12.25" cy="18.5" rx="1.1" ry="5.25" fill="#fff" opacity="0.22" transform="rotate(-10 12.25 18.5)"/>
  <rect x="9" y="9" width="14" height="3.75" rx="1.25" fill="url(#l)"/>
  <rect x="9.9" y="9.75" width="12.25" height="1.4" rx="0.55" fill="#fff" opacity="0.1"/>
</svg>
